<?xml version="1.0" encoding="iso-8859-1"?>
<!-- Generator: Adobe Illustrator 15.0.0, SVG Export Plug-In . SVG Version: 6.00 Build 0)  -->
<!DOCTYPE svg PUBLIC "-//W3C//DTD SVG 1.1//EN" "http://www.w3.org/Graphics/SVG/1.1/DTD/svg11.dtd">
<svg version="1.1" id="Layer_1" xmlns="http://www.w3.org/2000/svg" xmlns:xlink="http://www.w3.org/1999/xlink" x="0px" y="0px"
	 width="595.279px" height="483.664px" viewBox="0 0 595.279 483.664" style="enable-background:new 0 0 595.279 483.664;"
	 xml:space="preserve">
<g>
	<g>
		<g>
			<defs>
				<polyline id="SVGID_1_" points="595.279,-19.765 595.279,503.43 0,503.43 				"/>
			</defs>
			<clipPath id="SVGID_2_">
				<use xlink:href="#SVGID_1_"  style="overflow:visible;"/>
			</clipPath>
			<line style="clip-path:url(#SVGID_2_);fill:none;" x1="489.478" y1="503.43" x2="595.279" y2="-19.765"/>
		</g>
	</g>
</g>
<g>
	<g>
		<g>
			<defs>
				<rect id="SVGID_3_" x="0" y="0.235" width="595.279" height="483.665"/>
			</defs>
			<clipPath id="SVGID_4_">
				<use xlink:href="#SVGID_3_"  style="overflow:visible;"/>
			</clipPath>
			<g style="clip-path:url(#SVGID_4_);">
				<g>
					<defs>
						<rect id="SVGID_5_" x="0" y="0.235" width="595.279" height="483.665"/>
					</defs>
					<clipPath id="SVGID_6_">
						<use xlink:href="#SVGID_5_"  style="overflow:visible;"/>
					</clipPath>
					<path style="clip-path:url(#SVGID_6_);fill:#03A9F4;" d="M595.279,57.494c-22.138,9.71-45.726,16.146-70.317,19.271
						c25.3-15.104,44.609-38.842,53.688-67.453c-23.589,14.064-49.633,23.997-77.388,29.541
						c-22.396-23.848-54.318-38.619-89.144-38.619c-67.565,0-121.957,54.842-121.957,122.07c0,9.673,0.817,18.975,2.827,27.83
						C191.531,145.186,101.756,96.559,41.446,22.484C30.917,40.752,24.741,61.661,24.741,84.17
						c0,42.265,21.765,79.729,54.208,101.421c-19.608-0.372-38.844-6.065-55.14-15.031v1.339
						c0,59.306,42.304,108.565,97.776,119.913c-9.934,2.715-20.761,4.018-31.996,4.018c-7.813,0-15.702-0.446-23.104-2.084
						c15.812,48.33,60.681,83.861,114.032,85.015c-41.521,32.479-94.239,52.051-151.313,52.051c-10.009,0-19.608-0.447-29.206-1.676
						c54.058,34.86,118.126,54.766,187.216,54.766c224.568,0,347.345-186.023,347.345-347.271c0-5.395-0.187-10.603-0.445-15.774
						C558.335,103.665,578.686,82.198,595.279,57.494"/>
				</g>
			</g>
		</g>
	</g>
</g>
</svg>
