<?xml version="1.0" encoding="utf-8"?>
<!-- Generator: Adobe Illustrator 15.0.0, SVG Export Plug-In . SVG Version: 6.00 Build 0)  -->
<!DOCTYPE svg PUBLIC "-//W3C//DTD SVG 1.1//EN" "http://www.w3.org/Graphics/SVG/1.1/DTD/svg11.dtd">
<svg version="1.1" id="Layer_1" xmlns="http://www.w3.org/2000/svg" xmlns:xlink="http://www.w3.org/1999/xlink" x="0px" y="0px"
	 width="63.997px" height="63.555px" viewBox="0 0 63.997 63.555" enable-background="new 0 0 63.997 63.555" xml:space="preserve">
<g>
	<g>
		<g>
			<defs>
				<rect id="SVGID_1_" x="0" y="0.001" width="63.997" height="63.554"/>
			</defs>
			<clipPath id="SVGID_2_">
				<use xlink:href="#SVGID_1_"  overflow="visible"/>
			</clipPath>
			<g clip-path="url(#SVGID_2_)">
				<g>
					<defs>
						<rect id="SVGID_3_" x="0" y="0.001" width="63.997" height="63.554"/>
					</defs>
					<clipPath id="SVGID_4_">
						<use xlink:href="#SVGID_3_"  overflow="visible"/>
					</clipPath>
					<path clip-path="url(#SVGID_4_)" fill="#1D1D1B" d="M28.938,31.789L0.61,60.117c-0.787,0.785-0.787,2.062,0,2.849
						c0.393,0.395,0.908,0.59,1.424,0.59s1.031-0.195,1.424-0.59l28.541-28.541L60.54,62.966c0.395,0.395,0.909,0.59,1.424,0.59
						c0.516,0,1.031-0.195,1.424-0.59c0.787-0.787,0.787-2.063,0-2.849L35.061,31.789L63.407,3.44c0.787-0.786,0.787-2.063,0-2.85
						c-0.787-0.786-2.063-0.786-2.848,0L32,29.152L3.438,0.592c-0.787-0.786-2.062-0.786-2.848,0c-0.787,0.787-0.787,2.063,0,2.85
						L28.938,31.789z"/>
				</g>
			</g>
		</g>
	</g>
</g>
</svg>
