<?xml version="1.0" encoding="utf-8"?>
<!-- Generator: Adobe Illustrator 15.0.0, SVG Export Plug-In . SVG Version: 6.00 Build 0)  -->
<!DOCTYPE svg PUBLIC "-//W3C//DTD SVG 1.1//EN" "http://www.w3.org/Graphics/SVG/1.1/DTD/svg11.dtd">
<svg version="1.1" id="Layer_1" xmlns="http://www.w3.org/2000/svg" xmlns:xlink="http://www.w3.org/1999/xlink" x="0px" y="0px"
	 width="258.656px" height="189.483px" viewBox="0 0 258.656 189.483" enable-background="new 0 0 258.656 189.483"
	 xml:space="preserve">
<g>
	<path fill="#898989" d="M51.169,36.83l11.52,29.798c1.974,4.498,1.974,9.281-3.654,10.4L7.877,85.74C2.809,86.31,0,83.501,0,77.873
		C0,65.508,1.689,38.52,15.184,28.108C38.794,9.841,69.722,0,129.328,0c59.596,0,90.513,9.841,114.144,28.108
		c13.495,10.411,15.185,37.4,15.185,49.765c0,5.628-2.83,8.437-7.878,7.867l-51.169-8.711c-5.617-1.119-5.617-5.902-3.653-10.4
		l11.53-29.798h-30.094v17.993c0,19.682,12.65,34.296,33.451,54.538c19.408,18.837,25.87,42.173,25.87,66.912
		c0,8.997-3.379,13.21-12.924,13.21H34.866c-9.567,0-12.935-4.213-12.935-13.21c0-24.739,6.462-48.075,25.859-66.912
		c20.801-20.242,33.461-34.856,33.461-54.538V36.83H51.169z M129.328,174.024c26.145,0,47.221-21.086,47.221-47.23
		s-21.076-47.231-47.221-47.231c-26.155,0-47.241,21.086-47.241,47.231S103.173,174.024,129.328,174.024z M105.422,36.83v26.989
		h47.791V36.83H105.422z"/>
</g>
</svg>
