<?xml version="1.0" encoding="iso-8859-1"?>
<!-- Generator: Adobe Illustrator 15.0.0, SVG Export Plug-In . SVG Version: 6.00 Build 0)  -->
<!DOCTYPE svg PUBLIC "-//W3C//DTD SVG 1.1//EN" "http://www.w3.org/Graphics/SVG/1.1/DTD/svg11.dtd">
<svg version="1.1" id="Layer_1" xmlns="http://www.w3.org/2000/svg" xmlns:xlink="http://www.w3.org/1999/xlink" x="0px" y="0px"
	 width="107.317px" height="99.572px" viewBox="53.967 377.594 107.317 99.572"
	 style="enable-background:new 53.967 377.594 107.317 99.572;" xml:space="preserve">
<g>
	<g>
		<defs>
			<rect id="SVGID_1_" x="53.967" y="377.594" width="107.317" height="99.572"/>
		</defs>
		<clipPath id="SVGID_2_">
			<use xlink:href="#SVGID_1_"  style="overflow:visible;"/>
		</clipPath>
		<g style="clip-path:url(#SVGID_2_);">
			<defs>
				<rect id="SVGID_3_" x="53.967" y="377.594" width="107.317" height="99.572"/>
			</defs>
			<clipPath id="SVGID_4_">
				<use xlink:href="#SVGID_3_"  style="overflow:visible;"/>
			</clipPath>
			<path style="clip-path:url(#SVGID_4_);fill:#3E1918;" d="M107.624,377.594c-29.637,0-53.657,19.136-53.657,42.737
				c0,15.005,9.713,28.194,24.401,35.82l-5.055,21.015l24.206-14.865c3.272,0.498,6.648,0.767,10.105,0.767
				c29.636,0,53.66-19.133,53.66-42.736C161.284,396.729,137.26,377.594,107.624,377.594"/>
			<path style="clip-path:url(#SVGID_4_);fill:#FFE900;" d="M85.496,408.123H69.712c-1.262,0-2.293,0.979-2.293,2.188
				c0,1.207,1.031,2.196,2.293,2.196h5.592v18.532c0,1.435,1.079,2.608,2.397,2.608c1.316,0,2.384-1.174,2.384-2.608v-18.532h5.411
				c1.27,0,2.301-0.989,2.301-2.196C87.797,409.102,86.766,408.123,85.496,408.123"/>
			<path style="clip-path:url(#SVGID_4_);fill:#FFE900;" d="M106.913,429.99l-8.998-20.261c0,0-0.004-0.002-0.004-0.006
				c-0.114-0.257-0.612-0.865-1.121-1.234c-0.004-0.004-0.012-0.004-0.017-0.012c-0.12-0.085-0.246-0.161-0.363-0.209
				c-0.008-0.004-0.008,0-0.008-0.004c-0.014-0.009-0.02-0.011-0.034-0.019c-0.279-0.123-0.581-0.187-0.888-0.192
				c-0.305,0.006-0.608,0.069-0.891,0.192c-0.01,0.008-0.016,0.01-0.029,0.019c-0.001,0.004-0.001,0-0.005,0.004
				c-0.12,0.048-0.246,0.126-0.37,0.209c-0.002,0.008-0.006,0.008-0.012,0.012c-0.507,0.365-1.007,0.978-1.119,1.234l-9.002,20.267
				c-0.287,0.638-0.326,1.347-0.103,1.981c0.213,0.64,0.659,1.141,1.258,1.404c0.289,0.128,0.602,0.192,0.923,0.192
				c0.997,0,1.926-0.634,2.355-1.609l1.629-3.664h0.288h10.446l1.626,3.664c0.435,0.976,1.364,1.609,2.363,1.609
				c0.321,0,0.63-0.064,0.921-0.192c0.597-0.264,1.039-0.765,1.26-1.404C107.233,431.337,107.201,430.628,106.913,429.99
				 M91.83,424.437l3.65-8.214l3.655,8.214H91.83z"/>
			<path style="clip-path:url(#SVGID_4_);fill:#FFE900;" d="M124.565,429.505h-10.681v-18.405c0-1.463-1.094-2.646-2.439-2.646
				c-1.341,0-2.43,1.184-2.43,2.646v20.354h0.021c0.084,1.591,0.839,2.322,2.409,2.322h13.12c1.12,0,2.032-0.959,2.032-2.139
				C126.597,430.464,125.685,429.505,124.565,429.505"/>
			<path style="clip-path:url(#SVGID_4_);fill:#FFE900;" d="M147.064,429.11l-7.78-9.814l5.978-6.073
				c1.26-1.271,1.522-3.057,0.592-3.974c-0.358-0.354-0.853-0.542-1.424-0.542c-0.869,0-1.818,0.442-2.542,1.182l-8.463,8.548
				v-7.074c0-1.727-1.196-3.138-2.657-3.138c-1.464,0-2.658,1.411-2.658,3.138v19.401c0,1.734,1.194,3.142,2.658,3.142
				c1.461,0,2.657-1.407,2.657-3.142v-5.525l2.331-2.365l7.394,9.334c0.648,0.815,1.583,1.312,2.492,1.312
				c0.517,0,0.987-0.162,1.364-0.461c0.517-0.404,0.806-1.044,0.825-1.784C147.84,430.525,147.568,429.755,147.064,429.11"/>
		</g>
	</g>
</g>
</svg>
