<?xml version="1.0" encoding="iso-8859-1"?>
<!-- Generator: Adobe Illustrator 15.0.0, SVG Export Plug-In . SVG Version: 6.00 Build 0)  -->
<!DOCTYPE svg PUBLIC "-//W3C//DTD SVG 1.1//EN" "http://www.w3.org/Graphics/SVG/1.1/DTD/svg11.dtd">
<svg version="1.1" id="Layer_1" xmlns="http://www.w3.org/2000/svg" xmlns:xlink="http://www.w3.org/1999/xlink" x="0px" y="0px"
	 width="176px" height="124px" viewBox="-22.055 357.775 176 124" style="enable-background:new -22.055 357.775 176 124;"
	 xml:space="preserve">
<g>
	<g>
		<defs>
			<rect id="SVGID_1_" x="-22.055" y="357.775" width="176" height="124"/>
		</defs>
		<clipPath id="SVGID_2_">
			<use xlink:href="#SVGID_1_"  style="overflow:visible;"/>
		</clipPath>
		<g style="clip-path:url(#SVGID_2_);">
			<defs>
				<rect id="SVGID_3_" x="-22.055" y="357.775" width="176" height="124"/>
			</defs>
			<clipPath id="SVGID_4_">
				<use xlink:href="#SVGID_3_"  style="overflow:visible;"/>
			</clipPath>
			<path style="clip-path:url(#SVGID_4_);fill:#E90000;" d="M150.267,377.138c-2.024-7.622-7.988-13.624-15.561-15.661
				c-13.724-3.702-68.761-3.702-68.761-3.702s-55.037,0-68.762,3.702c-7.573,2.037-13.537,8.039-15.561,15.661
				c-3.677,13.813-3.677,42.637-3.677,42.637s0,28.822,3.677,42.637c2.024,7.622,7.988,13.624,15.561,15.662
				c13.725,3.701,68.762,3.701,68.762,3.701s55.037,0,68.761-3.701c7.573-2.038,13.537-8.04,15.561-15.662
				c3.678-13.814,3.678-42.637,3.678-42.637S153.945,390.952,150.267,377.138"/>
			<polygon style="clip-path:url(#SVGID_4_);fill:#FFFFFE;" points="47.945,445.944 47.945,393.606 93.945,419.776 			"/>
		</g>
	</g>
</g>
</svg>
