<?xml version="1.0" encoding="iso-8859-1"?>
<!-- Generator: Adobe Illustrator 15.0.0, SVG Export Plug-In . SVG Version: 6.00 Build 0)  -->
<!DOCTYPE svg PUBLIC "-//W3C//DTD SVG 1.1//EN" "http://www.w3.org/Graphics/SVG/1.1/DTD/svg11.dtd">
<svg version="1.1" id="Layer_1" xmlns="http://www.w3.org/2000/svg" xmlns:xlink="http://www.w3.org/1999/xlink" x="0px" y="0px"
	 width="300.705px" height="595.281px" viewBox="0 0 300.705 595.281" style="enable-background:new 0 0 300.705 595.281;"
	 xml:space="preserve">
<g>
	<g>
		<g>
			<defs>
				<rect id="SVGID_1_" x="0" y="0" width="300.705" height="595.281"/>
			</defs>
			<clipPath id="SVGID_2_">
				<use xlink:href="#SVGID_1_"  style="overflow:visible;"/>
			</clipPath>
			<g style="clip-path:url(#SVGID_2_);">
				<g>
					<defs>
						<rect id="SVGID_3_" x="0" y="0" width="300.705" height="595.281"/>
					</defs>
					<clipPath id="SVGID_4_">
						<use xlink:href="#SVGID_3_"  style="overflow:visible;"/>
					</clipPath>
					<path style="clip-path:url(#SVGID_4_);fill:#385C8E;" d="M9.604,317.047h65.252v268.633c0,5.306,4.297,9.603,9.602,9.603
						h110.636c5.304,0,9.603-4.297,9.603-9.603V318.313h75.011c4.879,0,8.982-3.66,9.541-8.504l11.392-98.898
						c0.313-2.72-0.549-5.446-2.369-7.487c-1.821-2.043-4.43-3.212-7.167-3.212H204.7v-61.995c0-18.687,10.061-28.164,29.91-28.164
						h56.493c5.305,0,9.602-4.299,9.602-9.601V9.673c0-5.304-4.297-9.601-9.602-9.601h-77.856c-0.549-0.027-1.77-0.071-3.566-0.071
						c-13.509,0-60.465,2.652-97.557,36.775c-41.098,37.813-35.384,83.089-34.02,90.938v72.494H9.603
						c-5.304,0-9.602,4.297-9.602,9.602v97.635C0.002,312.748,4.299,317.047,9.604,317.047"/>
				</g>
			</g>
		</g>
	</g>
</g>
</svg>
