<svg xmlns="http://www.w3.org/2000/svg" width="58" height="64.98" viewBox="0 0 58 64.98">
    <path data-name="사각형 16" transform="translate(0 6.98)" style="fill:none" d="M0 0h58v58H0z"/>
    <g data-name="합치기 1" style="fill:none">
        <path d="M0 40.572V13.524a13.524 13.524 0 0 1 27.048 0 13.524 13.524 0 1 1 0 27.048z" style="stroke:none" transform="rotate(-45 34.64 14.32)"/>
        <path d="M27.048 37.572c2.811 0 5.454-1.095 7.442-3.082a10.455 10.455 0 0 0 3.082-7.442c0-2.811-1.095-5.454-3.082-7.442a10.455 10.455 0 0 0-7.442-3.082h-3v-3c0-2.811-1.095-5.454-3.082-7.442A10.455 10.455 0 0 0 13.524 3a10.455 10.455 0 0 0-7.442 3.082A10.455 10.455 0 0 0 3 13.524v24.048h24.048m0 3H0V13.524C0 6.054 6.055 0 13.524 0c7.47 0 13.524 6.055 13.524 13.524 7.47 0 13.524 6.055 13.524 13.524 0 7.47-6.055 13.524-13.524 13.524z" style="fill:#e01f27;stroke:none" transform="rotate(-45 34.64 14.32)"/>
    </g>
</svg>
